<svg width="49" height="46" viewBox="0 0 49 46" fill="none" xmlns="http://www.w3.org/2000/svg">
<path d="M14.2918 39.6023V36.4168C14.2918 35.4002 14.722 34.4251 15.4878 33.7063C16.2536 32.9874 17.2922 32.5835 18.3752 32.5835H30.6252C31.7081 32.5835 32.7467 32.9874 33.5125 33.7063C34.2783 34.4251 34.7085 35.4002 34.7085 36.4168V39.6023M44.9168 23.0002C44.9168 33.5856 35.776 42.1668 24.5002 42.1668C13.2243 42.1668 4.0835 33.5856 4.0835 23.0002C4.0835 12.4147 13.2243 3.8335 24.5002 3.8335C35.776 3.8335 44.9168 12.4147 44.9168 23.0002ZM30.6252 19.1668C30.6252 22.3425 27.8829 24.9168 24.5002 24.9168C21.1174 24.9168 18.3752 22.3425 18.3752 19.1668C18.3752 15.9912 21.1174 13.4168 24.5002 13.4168C27.8829 13.4168 30.6252 15.9912 30.6252 19.1668Z" stroke="black" stroke-width="2" stroke-linecap="round" stroke-linejoin="round"/>
</svg>
