<svg width="32" height="32" viewBox="0 0 32 32" fill="none" xmlns="http://www.w3.org/2000/svg">
<path d="M18.6668 2.6665V7.99984C18.6668 8.70708 18.9478 9.38536 19.4479 9.88546C19.948 10.3856 20.6263 10.6665 21.3335 10.6665H26.6668M16.0002 15.9998V23.9998M16.0002 15.9998L20.0002 19.9998M16.0002 15.9998L12.0002 19.9998M20.0002 2.6665H8.00016C7.29292 2.6665 6.61464 2.94746 6.11454 3.44755C5.61445 3.94765 5.3335 4.62593 5.3335 5.33317V26.6665C5.3335 27.3737 5.61445 28.052 6.11454 28.5521C6.61464 29.0522 7.29292 29.3332 8.00016 29.3332H24.0002C24.7074 29.3332 25.3857 29.0522 25.8858 28.5521C26.3859 28.052 26.6668 27.3737 26.6668 26.6665V9.33317L20.0002 2.6665Z" stroke="black" stroke-width="2" stroke-linecap="round" stroke-linejoin="round"/>
</svg>
