<svg width="15" height="15" viewBox="0 0 15 15" fill="none" xmlns="http://www.w3.org/2000/svg">
<g clip-path="url(#clip0_681_1287)">
<path d="M4.375 6.87522V4.37522C4.37422 3.60025 4.66143 2.85263 5.18086 2.27751C5.70029 1.70239 6.41489 1.34078 7.18594 1.2629C7.95699 1.18502 8.72947 1.39641 9.35342 1.85604C9.97737 2.31567 10.4083 2.99075 10.5625 3.75022M3.125 6.87522H11.875C12.5654 6.87522 13.125 7.43486 13.125 8.12522V12.5002C13.125 13.1906 12.5654 13.7502 11.875 13.7502H3.125C2.43464 13.7502 1.875 13.1906 1.875 12.5002V8.12522C1.875 7.43486 2.43464 6.87522 3.125 6.87522Z" stroke="black" stroke-width="2" stroke-linecap="round" stroke-linejoin="round"/>
</g>
<defs>
<clipPath id="clip0_681_1287">
<rect width="15" height="15" fill="white"/>
</clipPath>
</defs>
</svg>
