<svg width="24" height="25" viewBox="0 0 24 25" fill="none" xmlns="http://www.w3.org/2000/svg">
<path d="M7 11.8625V7.85025C7 6.52011 7.52678 5.24445 8.46447 4.30391C9.40215 3.36336 10.6739 2.83496 12 2.83496C13.3261 2.83496 14.5979 3.36336 15.5355 4.30391C16.4732 5.24445 17 6.52011 17 7.85025V11.8625M5 11.8625H19C20.1046 11.8625 21 12.7607 21 13.8686V20.89C21 21.998 20.1046 22.8961 19 22.8961H5C3.89543 22.8961 3 21.998 3 20.89V13.8686C3 12.7607 3.89543 11.8625 5 11.8625Z" stroke="white" stroke-width="2" stroke-linecap="round" stroke-linejoin="round"/>
</svg>
