<svg width="24" height="24" viewBox="0 0 24 24" fill="none" xmlns="http://www.w3.org/2000/svg">
<path d="M16 21V19C16 17.9391 15.5786 16.9217 14.8284 16.1716C14.0783 15.4214 13.0609 15 12 15H6C4.93913 15 3.92172 15.4214 3.17157 16.1716C2.42143 16.9217 2 17.9391 2 19V21M16 3.128C16.8578 3.35037 17.6174 3.85126 18.1597 4.55206C18.702 5.25286 18.9962 6.11389 18.9962 7C18.9962 7.88611 18.702 8.74714 18.1597 9.44794C17.6174 10.1487 16.8578 10.6496 16 10.872M22 21V19C21.9993 18.1137 21.7044 17.2528 21.1614 16.5523C20.6184 15.8519 19.8581 15.3516 19 15.13M13 7C13 9.20914 11.2091 11 9 11C6.79086 11 5 9.20914 5 7C5 4.79086 6.79086 3 9 3C11.2091 3 13 4.79086 13 7Z" stroke="white" stroke-width="2" stroke-linecap="round" stroke-linejoin="round"/>
</svg>
